<?xml version="1.0" encoding="utf-8"?><!DOCTYPE svg PUBLIC "-//W3C//DTD SVG 1.1//EN" "http://www.w3.org/Graphics/SVG/1.1/DTD/svg11.dtd"><svg xmlns="http://www.w3.org/2000/svg" width="188" height="188" viewBox="0 0 37 37" shape-rendering="crispEdges"><path fill="#FFFFF7" d="M0 0h37v37H0z"/><path stroke="#1F1A14" d="M2 2.5h7m3 0h1m3 0h1m1 0h6m1 0h1m2 0h7M2 3.5h1m5 0h1m2 0h4m2 0h2m1 0h1m1 0h3m1 0h1m1 0h1m5 0h1M2 4.5h1m1 0h3m1 0h1m1 0h5m1 0h2m3 0h5m2 0h1m1 0h3m1 0h1M2 5.5h1m1 0h3m1 0h1m1 0h2m2 0h1m2 0h1m2 0h2m2 0h2m2 0h1m1 0h3m1 0h1M2 6.5h1m1 0h3m1 0h1m1 0h1m3 0h1m1 0h10m2 0h1m1 0h3m1 0h1M2 7.5h1m5 0h1m1 0h1m3 0h2m7 0h1m4 0h1m5 0h1M2 8.5h7m1 0h1m1 0h1m1 0h1m1 0h1m1 0h1m1 0h1m1 0h1m1 0h1m1 0h1m1 0h7M10 9.5h2m1 0h1m4 0h1m3 0h5M2 10.5h1m1 0h5m2 0h1m3 0h2m2 0h3m2 0h1m1 0h1m1 0h5M3 11.5h1m5 0h7m2 0h9m1 0h2m1 0h4M2 12.5h9m1 0h1m1 0h6m2 0h3m5 0h1m1 0h2M3 13.5h1m1 0h1m1 0h1m1 0h2m2 0h1m1 0h1m1 0h5m1 0h1m1 0h4m1 0h5M2 14.5h1m5 0h1m2 0h4m1 0h3m7 0h2m3 0h1m1 0h2M4 15.5h1m2 0h1m5 0h1m3 0h1m1 0h5m1 0h1m2 0h1m2 0h4M3 16.5h2m3 0h1m5 0h6m2 0h2m2 0h3m3 0h2M2 17.5h1m2 0h1m1 0h1m2 0h4m2 0h2m5 0h1m3 0h2m1 0h3M2 18.5h1m2 0h5m1 0h2m4 0h1m1 0h1m4 0h1m2 0h1m1 0h2m3 0h1M3 19.5h2m2 0h1m1 0h1m1 0h2m1 0h1m1 0h1m1 0h1m2 0h5m2 0h2m1 0h4M2 20.5h2m1 0h1m2 0h1m1 0h2m1 0h1m2 0h3m1 0h1m2 0h2m1 0h1m1 0h3m1 0h1M2 21.5h4m5 0h3m1 0h1m5 0h4m1 0h1m2 0h4M2 22.5h1m4 0h2m3 0h1m1 0h1m1 0h2m2 0h2m5 0h1m2 0h2m2 0h1M2 23.5h2m2 0h1m3 0h2m2 0h1m1 0h3m2 0h5m2 0h2m1 0h2m1 0h1M2 24.5h1m1 0h5m3 0h2m2 0h1m6 0h1m2 0h1m4 0h3M2 25.5h1m3 0h2m1 0h1m1 0h3m2 0h1m1 0h1m2 0h1m1 0h1m1 0h3m2 0h4M2 26.5h1m1 0h1m3 0h1m3 0h1m2 0h2m1 0h2m4 0h1m1 0h6m1 0h1M10 27.5h3m2 0h2m1 0h2m1 0h1m1 0h1m1 0h2m3 0h1m1 0h1m1 0h1M2 28.5h7m3 0h2m1 0h5m2 0h1m2 0h2m1 0h1m1 0h1m1 0h2M2 29.5h1m5 0h1m1 0h3m2 0h2m1 0h3m1 0h2m1 0h2m3 0h5M2 30.5h1m1 0h3m1 0h1m1 0h1m3 0h1m3 0h1m7 0h6M2 31.5h1m1 0h3m1 0h1m1 0h2m2 0h1m2 0h1m2 0h1m1 0h1m1 0h1m1 0h2m2 0h1m1 0h3M2 32.5h1m1 0h3m1 0h1m1 0h1m1 0h1m4 0h4m2 0h2m1 0h4M2 33.5h1m5 0h1m3 0h1m2 0h3m5 0h1m1 0h1m1 0h2m1 0h3M2 34.5h7m1 0h6m1 0h1m1 0h2m3 0h6m3 0h1"/></svg>
